PathFileType	4	(X/Y/Z)	3_coords_data.trc
DataRate	CameraRate	NumFrames	NumMarkers	Units	OrigDataRate	OrigDataStartFrame	OrigNumFrames
30.0	30.0	6	21	m	30.0	31	71
Frame#	Time	THUMB_TIP	THUMB_IP	THUMB_MCP	THUMB_CMC	INDEX_TIP	INDEX_DIP	INDEX_PIP	INDEX_MCP	MIDDLE_TIP	MIDDLE_DIP	MIDDLE_PIP	MIDDLE_MCP	RING_TIP	RING_DIP	RING_PIP	RING_MCP	PINKY_TIP	PINKY_DIP	PINKY_PIP	PINKY_MCP	WRIST
X1	Y1	Z1	X2	Y2	Z2	X3	Y3	Z3	X4	Y4	Z4	X5	Y5	Z5	X6	Y6	Z6	X7	Y7	Z7	X8	Y8	Z8	X9	Y9	Z9	X10	Y10	Z10	X11	Y11	Z11	X12	Y12	Z12	X13	Y13	Z13	X14	Y14	Z14	X15	Y15	Z15	X16	Y16	Z16	X17	Y17	Z17	X18	Y18	Z18	X19	Y19	Z19	X20	Y20	Z20	X21	Y21	Z21
30	1.0	-0.09813680267333984	-0.07406990051269531	0.9796270141601563	-0.11923799896240235	-0.07605329895019532	0.9729819946289062	-0.1400019989013672	-0.059382701873779295	0.9801389770507812	-0.13447999572753908	-0.034408199310302735	0.998125	-0.12873899841308595	-0.11922899627685547	0.9066580200195312	-0.12961199951171876	-0.09906700134277344	0.9156129760742188	-0.13002499389648436	-0.07713040161132813	0.925594970703125	-0.1285	-0.0395786018371582	0.9428040161132812	-0.11284600067138671	-0.06439199829101562	0.9672100219726563	-0.10727100372314453	-0.0806178970336914	0.9560159912109375	-0.10469200134277344	-0.07470860290527344	0.931530029296875	-0.10585600280761719	-0.03478239822387695	0.94247802734375	-0.10037100219726562	-0.061542499542236326	0.9763049926757813	-0.09100129699707031	-0.07497979736328125	0.9637830200195312	-0.08183370208740234	-0.07023359680175781	0.9425009765625	-0.0884021987915039	-0.03377460098266601	0.954385986328125	-0.041224498748779294	-0.0912477035522461	0.9454030151367188	-0.050143600463867184	-0.07493560028076172	0.9527839965820313	-0.060433799743652344	-0.06027579879760742	0.9598250122070312	-0.07823609924316406	-0.03868560028076172	0.9733040161132812	-0.12422599792480468	0.00018233199417591	1.02327001953125
31	1.0333333333333334	-0.09838480377197266	-0.07367359924316406	0.9792940063476563	-0.11925399780273438	-0.07634529876708984	0.9727420043945313	-0.13992599487304688	-0.059526100158691406	0.9802349853515625	-0.13412600708007813	-0.034404098510742186	0.9977379760742188	-0.12872799682617186	-0.11912100219726562	0.9065560302734375	-0.12954200744628908	-0.09890499877929687	0.9155800170898437	-0.13010899353027344	-0.0770082015991211	0.92543701171875	-0.12871499633789063	-0.03939599990844726	0.9427839965820313	-0.11376599884033203	-0.0635875015258789	0.9686420288085937	-0.10738899993896485	-0.08050820159912109	0.9558060302734375	-0.10461399841308594	-0.07467489624023438	0.9313270263671874	-0.10589700317382812	-0.0346255989074707	0.94252001953125	-0.10016100311279297	-0.06143539810180664	0.9760499877929687	-0.09101779937744141	-0.07488339996337891	0.9631710205078124	-0.08181909942626953	-0.07013670349121094	0.9423779907226563	-0.088589599609375	-0.03401300048828125	0.95422900390625	-0.04130319976806641	-0.09125740051269532	0.9453510131835937	-0.050213798522949216	-0.07489830017089844	0.9525560302734375	-0.060493099212646485	-0.0601703987121582	0.9597100219726562	-0.0782916030883789	-0.03856230163574219	0.973260986328125	-0.124125	-0.000262163996696472	1.0231099853515624
32	1.0666666666666667	-0.09693000030517578	-0.07427359771728516	0.978760986328125	-0.11925399780273438	-0.07628359985351563	0.972625	-0.1399969940185547	-0.059598400115966794	0.9804409790039063	-0.13404600524902344	-0.03429359817504883	0.9978350219726563	-0.12852000427246094	-0.11910800170898438	0.90652001953125	-0.1294409942626953	-0.09912550354003906	0.9154509887695312	-0.12992999267578126	-0.076989501953125	0.9253400268554688	-0.12861300659179686	-0.0394718017578125	0.9427080078125	-0.11329199981689453	-0.06338249969482422	0.9679910278320313	-0.10706099700927735	-0.08069219970703125	0.9561519775390624	-0.10447699737548828	-0.07467620086669922	0.9312440185546875	-0.10582599639892579	-0.034599998474121096	0.9424810180664063	-0.10024500274658203	-0.06119010162353516	0.97664697265625	-0.09089520263671876	-0.07484609985351562	0.963510986328125	-0.08175099945068359	-0.07022109985351563	0.9423729858398437	-0.08829650115966797	-0.03400910186767578	0.9541790161132813	-0.04120199966430664	-0.09125759887695313	0.9453480224609375	-0.05009030151367187	-0.07496330261230469	0.95260302734375	-0.06042940139770508	-0.06019329833984375	0.9597009887695312	-0.07825849914550781	-0.0386531982421875	0.97302099609375	-0.12387400054931641	-0.00015687499940395303	1.02272998046875
33	1.1	-0.09760019683837891	-0.07411270141601563	0.9793939819335937	-0.11915899658203125	-0.0763197021484375	0.9725980224609375	-0.13972999572753905	-0.05943280029296875	0.980156005859375	-0.13384700012207032	-0.0342848014831543	0.9977930297851563	-0.12839500427246095	-0.11918699645996093	0.9065260009765626	-0.12928399658203124	-0.09912329864501954	0.9155250244140625	-0.1295189971923828	-0.07716819763183594	0.9254169921875	-0.12842300415039062	-0.03950979995727539	0.9427100219726563	-0.11316300201416016	-0.06378749847412109	0.9675120239257813	-0.107	-0.08064530181884766	0.9563629760742187	-0.1045	-0.07470149993896484	0.931322998046875	-0.1059000015258789	-0.034764801025390625	0.9425059814453125	-0.1001179962158203	-0.06170719909667969	0.977010986328125	-0.09069090270996094	-0.07468219757080079	0.9639990234375	-0.08159220123291015	-0.07018109893798828	0.9423330078125	-0.08818119812011718	-0.03369229888916016	0.954239990234375	-0.04109920120239258	-0.09132890319824219	0.9453519897460938	-0.04999760055541992	-0.07496720123291016	0.952614013671875	-0.06025899887084961	-0.06028110122680664	0.9596909790039062	-0.07802020263671874	-0.038568000793457034	0.9731640014648437	-0.12421600341796875	0.000259193986654281	1.0241099853515625
34	1.1333333333333333	-0.09679180145263672	-0.07449459838867188	0.9786409912109375	-0.11876200103759765	-0.07630380249023437	0.9726240234375	-0.13955599975585936	-0.05940459823608398	0.9809390258789062	-0.13370599365234376	-0.0345004997253418	0.997927978515625	-0.1281390075683594	-0.1192979965209961	0.9064929809570312	-0.12908799743652344	-0.09904859924316406	0.9155020141601562	-0.12949600219726562	-0.07711280059814453	0.9253759765625	-0.128281005859375	-0.03955739974975586	0.9425189819335937	-0.1131959991455078	-0.06350609970092773	0.9680180053710937	-0.10699700164794922	-0.08060559844970704	0.9557849731445313	-0.10416799926757812	-0.07479049682617188	0.9313759765625	-0.10556300354003906	-0.034739498138427735	0.9424299926757812	-0.10012999725341797	-0.06144570159912109	0.97731201171875	-0.09054450225830078	-0.07500019836425781	0.9632210083007813	-0.0813395004272461	-0.07023159790039063	0.94227197265625	-0.08792530059814453	-0.03377619934082031	0.954177978515625	-0.04092829895019531	-0.09136270141601563	0.9452830200195312	-0.049795799255371094	-0.07496959686279298	0.9525330200195312	-0.06008459854125976	-0.06025799942016601	0.9595670166015625	-0.0778511962890625	-0.03852239990234375	0.973083984375	-0.12347899627685546	5.331450141966e-06	1.022489990234375
35	1.1666666666666667	-0.09691049957275391	-0.074010498046875	0.9789000244140625	-0.11861000061035157	-0.07640689849853516	0.9725919799804688	-0.1398780059814453	-0.0596250991821289	0.9803400268554687	-0.13373500061035157	-0.03419179916381836	0.997594970703125	-0.12788899993896485	-0.1192979965209961	0.90639697265625	-0.12886700439453125	-0.09914969635009765	0.9153939819335938	-0.12930400085449217	-0.07703170013427735	0.9252520141601562	-0.12813600158691407	-0.03947529983520508	0.942541015625	-0.11288200378417969	-0.06405130004882813	0.967926025390625	-0.10662999725341797	-0.08047989654541016	0.9561710205078126	-0.10405300140380859	-0.07467420196533203	0.9311619873046875	-0.10517500305175781	-0.03461669921875	0.9422310180664063	-0.09988480377197266	-0.06133589935302734	0.9768179931640625	-0.09030909729003907	-0.07487149810791016	0.9634240112304687	-0.08137470245361328	-0.07030549621582032	0.9424349975585937	-0.08783930206298828	-0.03374639892578125	0.953905029296875	-0.04079959869384766	-0.09125530242919921	0.945155029296875	-0.04965090179443359	-0.07488929748535156	0.9523699951171875	-0.059887401580810545	-0.060172698974609376	0.9593060302734375	-0.07773719787597656	-0.03853829956054688	0.9729400024414062	-0.12362100219726563	-0.000363229006528854	1.0226400146484376
